<svg viewBox="0 0 1024 1024" xmlns="http://www.w3.org/2000/svg" width="1024" height="1024" role="img" aria-label="Nova OS"><defs><linearGradient id="novaMark_tile" x1="0" y1="0" x2="1024" y2="1024" gradientUnits="userSpaceOnUse"><stop offset="0" stop-color="#0c1126"/><stop offset="1" stop-color="#0a1838"/></linearGradient><linearGradient id="novaMark_rib" x1="330" y1="350" x2="690" y2="712" gradientUnits="userSpaceOnUse"><stop offset="0" stop-color="#8b5cf6"/><stop offset="0.5" stop-color="#5b6cf4"/><stop offset="1" stop-color="#3b9bff"/></linearGradient><radialGradient id="novaMark_halo" cx="0.5" cy="0.5" r="0.5"><stop offset="0" stop-color="#bcd4ff" stop-opacity="0.5"/><stop offset="1" stop-color="#bcd4ff" stop-opacity="0"/></radialGradient><radialGradient id="novaMark_spk" cx="0.5" cy="0.42" r="0.62"><stop offset="0" stop-color="#ffffff"/><stop offset="0.65" stop-color="#eef4ff"/><stop offset="1" stop-color="#cdddff"/></radialGradient><clipPath id="novaMark_clip"><rect width="1024" height="1024" rx="232"/></clipPath></defs><g clip-path="url(#novaMark_clip)"><rect width="1024" height="1024" fill="url(#novaMark_tile)"/><path d="M360,706 C344,580 352,470 372,360 C452,470 560,600 652,706 C672,580 660,470 676,360" fill="none" stroke="url(#novaMark_rib)" stroke-width="140" stroke-linecap="round" stroke-linejoin="round"/><circle cx="558" cy="394" r="150" fill="url(#novaMark_halo)"/><path transform="translate(558 394)" d="M0,-100 C12,-32 16,-28 86,0 C16,28 12,32 0,100 C-12,32 -16,28 -86,0 C-16,-28 -12,-32 0,-100 Z" fill="url(#novaMark_spk)"/></g></svg>
