<svg viewBox="0 0 760 220" xmlns="http://www.w3.org/2000/svg" role="img" aria-label="Nova OS"><defs><style>.nv-word{fill:#1c2333}@media (prefers-color-scheme:dark){.nv-word{fill:#e8ebf2}}</style><linearGradient id="novaFinalLk_tile" x1="0" y1="0" x2="220" y2="220" gradientUnits="userSpaceOnUse"><stop offset="0" stop-color="#6366f1"/><stop offset="0.52" stop-color="#a855f7"/><stop offset="1" stop-color="#06b6d4"/></linearGradient><linearGradient id="novaFinalLk_sheen" x1="0" y1="0" x2="0" y2="1"><stop offset="0%" stop-color="#ffffff" stop-opacity="0.26"/><stop offset="46%" stop-color="#ffffff" stop-opacity="0"/></linearGradient><radialGradient id="novaFinalLk_halo" cx="0.5" cy="0.5" r="0.5"><stop offset="0%" stop-color="#ffffff" stop-opacity="0.92"/><stop offset="45%" stop-color="#dbeafe" stop-opacity="0.34"/><stop offset="100%" stop-color="#dbeafe" stop-opacity="0"/></radialGradient><radialGradient id="novaFinalLk_core" cx="0.42" cy="0.4" r="0.62"><stop offset="0%" stop-color="#ffffff"/><stop offset="50%" stop-color="#ffffff"/><stop offset="82%" stop-color="#eaf4ff"/><stop offset="100%" stop-color="#bcd9ff"/></radialGradient><linearGradient id="novaFinalLk_ring" x1="0" y1="0" x2="1" y2="1"><stop offset="0%" stop-color="#ffffff" stop-opacity="0.25"/><stop offset="50%" stop-color="#ffffff" stop-opacity="0.95"/><stop offset="100%" stop-color="#ffffff" stop-opacity="0.3"/></linearGradient><clipPath id="novaFinalLk_clip"><rect x="20" y="20" width="180" height="180" rx="40"/></clipPath></defs><g clip-path="url(#novaFinalLk_clip)"><rect x="20" y="20" width="180" height="180" fill="url(#novaFinalLk_tile)"/><rect x="20" y="20" width="180" height="180" fill="url(#novaFinalLk_sheen)"/><g transform="translate(110 110)"><circle r="53" fill="url(#novaFinalLk_halo)"/><g transform="rotate(-29)"><ellipse cx="0" cy="0" rx="65" ry="25" fill="none" stroke="url(#novaFinalLk_ring)" stroke-width="3"/></g><g fill="#eaf4ff" opacity="0.8" transform="rotate(45)"><path d="M0,-26 C3,-8 4,-7 26,0 C4,7 3,8 0,26 C-3,8 -4,7 -26,0 C-4,-7 -3,-8 0,-26 Z"/></g><g fill="#ffffff"><path d="M0,-69 C6,-26 7,-24 69,0 C7,24 6,26 0,69 C-6,26 -7,24 -69,0 C-7,-24 -6,-26 0,-69 Z"/></g><circle r="21" fill="url(#novaFinalLk_core)"/><circle r="21" fill="none" stroke="#ffffff" stroke-opacity="0.55" stroke-width="2.5"/></g></g><text x="232" y="142" font-family="Space Grotesk, Helvetica, Arial, sans-serif" font-size="92" font-weight="500" letter-spacing="-2" class="nv-word">Nova<tspan fill="#3385ea"> OS</tspan></text></svg>
