<svg viewBox="0 0 600 210" xmlns="http://www.w3.org/2000/svg" role="img" aria-label="Nova OS"><defs><style>.nv-word{fill:#11162a}@media (prefers-color-scheme:dark){.nv-word{fill:#f3f6fc}}</style><linearGradient id="novaLk_rib" x1="330" y1="350" x2="690" y2="712" gradientUnits="userSpaceOnUse"><stop offset="0" stop-color="#8b5cf6"/><stop offset="0.5" stop-color="#5b6cf4"/><stop offset="1" stop-color="#3b9bff"/></linearGradient><radialGradient id="novaLk_halo" cx="0.5" cy="0.5" r="0.5"><stop offset="0" stop-color="#bcd4ff" stop-opacity="0.5"/><stop offset="1" stop-color="#bcd4ff" stop-opacity="0"/></radialGradient><radialGradient id="novaLk_spk" cx="0.5" cy="0.42" r="0.62"><stop offset="0" stop-color="#ffffff"/><stop offset="0.65" stop-color="#eef4ff"/><stop offset="1" stop-color="#cdddff"/></radialGradient><linearGradient id="novaLk_os" x1="0" y1="0" x2="1" y2="0"><stop offset="0" stop-color="#4f9eff"/><stop offset="1" stop-color="#2f74e6"/></linearGradient></defs><g transform="translate(-38 4) scale(0.1953125)"><path d="M360,706 C344,580 352,470 372,360 C452,470 560,600 652,706 C672,580 660,470 676,360" fill="none" stroke="url(#novaLk_rib)" stroke-width="140" stroke-linecap="round" stroke-linejoin="round"/><circle cx="558" cy="394" r="150" fill="url(#novaLk_halo)"/><path transform="translate(558 394)" d="M0,-100 C12,-32 16,-28 86,0 C16,28 12,32 0,100 C-12,32 -16,28 -86,0 C-16,-28 -12,-32 0,-100 Z" fill="url(#novaLk_spk)"/></g><text x="150" y="138" font-family="Space Grotesk, Helvetica, Arial, sans-serif" font-size="104" font-weight="600" letter-spacing="-3" class="nv-word">Nova<tspan fill="url(#novaLk_os)"> OS</tspan></text></svg>
